<svg xmlns="http://www.w3.org/2000/svg" viewBox="0 0 18 18">
    <g fill="#00A1D6">
        <path d="M5.6579925 5.625C4.8683325 5.625 4.20897 6.227145 4.13748 7.013557499999999L3.5360625000000003 13.62915C3.46695 14.389425 3.9620925000000002 15.026175 4.66098 15.115125C5.6989350000000005 15.2472 7.17474 15.375 9 15.375C10.825275 15.375 12.301124999999999 15.2472 13.339087500000002 15.115125C14.0379375 15.026175 14.5330875 14.389425 14.463975 13.62915L13.8625875 7.013557499999999C13.791075000000001 6.227145 13.13175 5.625 12.342075 5.625L8.25 5.625C7.939350000000001 5.625 7.6875 5.3731575 7.6875 5.0625C7.6875 4.7518425 7.939350000000001 4.5 8.25 4.5L12.342075 4.5C13.7136 4.5 14.858774999999998 5.5458300000000005 14.982937500000002 6.9117075L15.584362500000001 13.5273C15.702937499999999 14.831174999999998 14.838262499999999 16.0584 13.481099999999998 16.231125C12.401025 16.3686 10.87755 16.5 9 16.5C7.1224575 16.5 5.599005 16.3686 4.518945 16.231125C3.1617525000000004 16.0584 2.297145 14.831174999999998 2.4156825 13.5273L3.0171 6.9117075C3.1412700000000005 5.5458300000000005 4.2864825 4.5 5.6579925 4.5L6.267854999999999 4.5C6.578519999999999 4.5 6.830354999999999 4.7518425 6.830354999999999 5.0625C6.830354999999999 5.3731575 6.578519999999999 5.625 6.267854999999999 5.625L5.6579925 5.625z"/>
        <path d="M9 2.625C7.9645125000000005 2.625 7.1250225 3.4644675000000005 7.1250225 4.5L7.1250225 6.09375C7.1250225 6.4044075000000005 6.873187499999999 6.65625 6.5625225 6.65625C6.2518650000000004 6.65625 6.0000225 6.4044075000000005 6.0000225 6.09375L6.0000225 4.5C6.0000225 2.843145 7.3431675 1.5 9 1.5C10.656862499999999 1.5 12 2.843145 12 4.5C12 4.8106575 11.7481875 5.0625 11.4375 5.0625C11.126850000000001 5.0625 10.875 4.8106575 10.875 4.5C10.875 3.4644675000000005 10.035562500000001 2.625 9 2.625z"/>
        <path d="M7.3139400000000006 8.25075C7.3139400000000006 8.6653125 6.97785 9.001425 6.563242499999999 9.001425C6.1486275 9.001425 5.8125225 8.6653125 5.8125225 8.25075C5.8125225 7.836119999999999 6.1486275 7.5 6.563242499999999 7.5C6.97785 7.5 7.3139400000000006 7.836119999999999 7.3139400000000006 8.25075z"/>
        <path d="M12.1889625 8.25075C12.1889625 8.66535 11.85285 9.0014625 11.43825 9.0014625C11.0236125 9.0014625 10.6875 8.66535 10.6875 8.25075C10.6875 7.836119999999999 11.0236125 7.5 11.43825 7.5C11.85285 7.5 12.1889625 7.836119999999999 12.1889625 8.25075z"/>
    </g>
</svg>