<svg xmlns="http://www.w3.org/2000/svg" viewBox="0 0 18 18">
    <g fill="#00A1D6">
        <path d="M8.614275 6.87951C8.7490125 6.6030750000000005 9.082275 6.4881975 9.358725 6.622927499999999C9.806437500000001 6.7862849999999995 10.2297 7.0488 10.590599999999998 7.409677499999999C12.12825 8.9473875 12.12825 11.440462499999999 10.590599999999998 12.978150000000001L8.734425 14.834325C7.196745 16.3720125 4.7036549999999995 16.3720125 3.1659675 14.834325C1.6282725 13.296637500000001 1.6282725 10.803525 3.1659675 9.2658375L4.5079125 7.923900000000001C4.7275875 7.704224999999999 5.08374 7.704224999999999 5.303415 7.923900000000001C5.5230825 8.143575 5.5230825 8.499712500000001 5.303415 8.7193875L3.9614625 10.061325C2.8631100000000003 11.1597 2.8631100000000003 12.940462499999999 3.9614625 14.0388375C5.0598 15.137175 6.840585 15.137175 7.9389375 14.0388375L9.795075 12.1826625C10.89345 11.084325 10.89345 9.303525 9.795075 8.205187500000001C9.5242125 7.9342875 9.206475 7.7408175 8.8708125 7.623959999999999C8.5944 7.4892375 8.479537500000001 7.155944999999999 8.614275 6.87951z"/>
        <path d="M14.0377875 3.9623775C12.93945 2.8640250000000003 11.1586875 2.8640250000000003 10.0603125 3.9623775L8.204175 5.81853C7.1058225 6.9168825 7.1058225 8.697637499999999 8.204175 9.7960125C8.4579 10.049737499999999 8.753325 10.234425 9.065775 10.3508625C9.338925 10.492275 9.4457625 10.828275 9.304387499999999 11.1013875C9.162975 11.3745375 8.826975 11.481375 8.553862500000001 11.34C8.138175 11.1783 7.745744999999999 10.928550000000001 7.4086725 10.5915C5.870985 9.0538125 5.870985 6.560722499999999 7.4086725 5.023035L9.264825 3.1668825C10.802512499999999 1.6291875 13.2955875 1.6291875 14.833312500000002 3.1668825C16.371 4.70457 16.371 7.197660000000001 14.833312500000002 8.735325L13.549425 10.0192125C13.329787500000002 10.23885 12.973650000000001 10.23885 12.7539375 10.0192125C12.534299999999998 9.7995 12.534299999999998 9.443362500000001 12.7539375 9.2236875L14.0377875 7.939837499999999C15.136125 6.8415 15.136125 5.0607225 14.0377875 3.9623775z"/>
    </g>
</svg>