<svg xmlns="http://www.w3.org/2000/svg" viewBox="0 0 18 18" >
    <g fill="#00a1d6">
        <path d="M3.3749775 8.758875C3.6856424999999997 8.758875 3.9374775 9.0106875 3.9374775 9.321375L3.9374775 13.821375C3.9374775 14.3095125 4.33323 14.70525 4.821405 14.70525L13.178550000000001 14.70525C13.666725 14.70525 14.0625 14.3095125 14.0625 13.821375L14.0625 9.321375C14.0625 9.0106875 14.3143125 8.758875 14.625 8.758875C14.93565 8.758875 15.1875 9.0106875 15.1875 9.321375L15.1875 13.821375C15.1875 14.930850000000001 14.2880625 15.83025 13.178550000000001 15.83025L4.821405 15.83025C3.7119074999999997 15.83025 2.8124775 14.930850000000001 2.8124775 13.821375L2.8124775 9.321375C2.8124775 9.0106875 3.0643199999999995 8.758875 3.3749775 8.758875z"/>
        <path d="M2.1696225 6.5892824999999995C2.1696225 5.746065 2.8531875 5.0625 3.696405 5.0625L14.303550000000001 5.0625C15.146774999999998 5.0625 15.830324999999998 5.746065 15.830324999999998 6.5892824999999995L15.830324999999998 8.025825000000001C15.830324999999998 8.768025 15.288825000000001 9.4204875 14.518125000000001 9.4986C13.5663 9.5950875 11.7789375 9.723225 9 9.723225C6.221047499999999 9.723225 4.433669999999999 9.5950875 3.4818525000000005 9.4986C2.711145 9.4204875 2.1696225 8.768025 2.1696225 8.025825000000001L2.1696225 6.5892824999999995zM3.696405 6.1875C3.4745099999999995 6.1875 3.2946225 6.3673875 3.2946225 6.5892824999999995L3.2946225 8.025825000000001C3.2946225 8.221725000000001 3.423675 8.3619375 3.5952824999999997 8.3793375C4.50612 8.4716625 6.255472500000001 8.598225 9 8.598225C11.744512499999999 8.598225 13.493850000000002 8.4716625 14.40465 8.3793375C14.5762875 8.3619375 14.705324999999998 8.221725000000001 14.705324999999998 8.025825000000001L14.705324999999998 6.5892824999999995C14.705324999999998 6.3673875 14.525437499999999 6.1875 14.303550000000001 6.1875L3.696405 6.1875z"/>
        <path d="M4.9017675 4.0179075C4.9017675 2.8196475 5.873145 1.84827 7.071405 1.84827C8.2696875 1.84827 9.241050000000001 2.8196475 9.241050000000001 4.0179075L9.241050000000001 6.187552499999999L7.071405 6.187552499999999C5.873145 6.187552499999999 4.9017675 5.2161675 4.9017675 4.0179075zM7.071405 2.9732700000000003C6.494467500000001 2.9732700000000003 6.0267675 3.44097 6.0267675 4.0179075C6.0267675 4.5948525 6.494467500000001 5.0625525 7.071405 5.0625525L8.116050000000001 5.0625525L8.116050000000001 4.0179075C8.116050000000001 3.44097 7.648350000000001 2.9732700000000003 7.071405 2.9732700000000003z"/>
        <path d="M8.758875 4.0179075C8.758875 2.8196475 9.730274999999999 1.84827 10.928550000000001 1.84827C12.126825 1.84827 13.098225000000001 2.8196475 13.098225000000001 4.0179075C13.098225000000001 5.2161675 12.126825 6.187552499999999 10.928550000000001 6.187552499999999L8.758875 6.187552499999999L8.758875 4.0179075zM10.928550000000001 2.9732700000000003C10.3516125 2.9732700000000003 9.883875 3.44097 9.883875 4.0179075L9.883875 5.0625525L10.928550000000001 5.0625525C11.505487500000001 5.0625525 11.973225 4.5948525 11.973225 4.0179075C11.973225 3.44097 11.505487500000001 2.9732700000000003 10.928550000000001 2.9732700000000003z"/>
        <path d="M9 4.2588525C9.310649999999999 4.2588525 9.5625 4.5106874999999995 9.5625 4.8213525L9.5625 14.78565C9.5625 15.0963 9.310649999999999 15.34815 9 15.34815C8.6893125 15.34815 8.4375 15.0963 8.4375 14.78565L8.4375 4.8213525C8.4375 4.5106874999999995 8.6893125 4.2588525 9 4.2588525z"/>
    </g>
</svg>