<svg xmlns="http://www.w3.org/2000/svg" viewBox="0 0 18 18">
    <g fill="#00A1D6">
        <path d="M9 2.6235375000000003C5.479185 2.6235375000000003 2.625 5.4777225000000005 2.625 8.9985C2.625 12.5193375 5.479185 15.3735 9 15.3735C12.520800000000001 15.3735 15.375 12.5193375 15.375 8.9985C15.375 5.4777225000000005 12.520800000000001 2.6235375000000003 9 2.6235375000000003zM1.5 8.9985C1.5 4.8564 4.8578624999999995 1.4985375 9 1.4985375C13.142137499999999 1.4985375 16.5 4.8564 16.5 8.9985C16.5 13.140675000000002 13.142137499999999 16.4985 9 16.4985C4.8578624999999995 16.4985 1.5 13.140675000000002 1.5 8.9985z"/>
        <path d="M11.4375 8.3505C11.9374875 8.6391375 11.9374875 9.360825 11.4375 9.6495375L8.3437875 11.4357C7.8437624999999995 11.724375 7.2187575 11.3635125 7.2187575 10.786200000000001L7.2187575 7.21383C7.2187575 6.63648 7.8437624999999995 6.2756324999999995 8.3437875 6.5643075L11.4375 8.3505z"/>
    </g>
</svg>